# xmcd CD database file
#
# Track frame offsets:
#	150
#	14763
#	29026
#	43040
#	55517
#	68484
#	83007
#	97059
#	110387
#	123420
#	136326
#	148974
#	161616
#	172528
#	183464
#	194586
#	209714
#	225286
#	240729
#	252723
#
# Disc length: 3531 seconds
#
# Revision: 0
# Processed by: cddbd v1.5.1PL0 Copyright (c) Steve Scherf et al.
# Submitted via: CDex 1.51
#
DISCID=200dc914
DTITLE=Django Reinhardt - Honeysuckle Rose
DYEAR=1900
DGENRE=Jazz
TTITLE0=Minor Swing
TTITLE1=Swing
TTITLE2=You Rascal You
TTITLE3=Honeysuckle Rose
TTITLE4=Charleston
TTITLE5=Tea For Two
TTITLE6=After You've Gone
TTITLE7=Improvisation
TTITLE8=Avalon
TTITLE9=Daphne
TTITLE10=Hungaria
TTITLE11=Lambeth Walk
TTITLE12=Swing Guitars
TTITLE13=Younger Generation
TTITLE14=Rosetta
TTITLE15=Swing
TTITLE16=Chicago
TTITLE17=Petite Lili
TTITLE18=Oui, C'est Ca
TTITLE19=Time On My Hands
EXTD=
EXTT0=
EXTT1=
EXTT2=
EXTT3=
EXTT4=
EXTT5=
EXTT6=
EXTT7=
EXTT8=
EXTT9=
EXTT10=
EXTT11=
EXTT12=
EXTT13=
EXTT14=
EXTT15=
EXTT16=
EXTT17=
EXTT18=
EXTT19=
PLAYORDER=
